<svg width="30" height="30" viewBox="0 0 30 30" fill="none" xmlns="http://www.w3.org/2000/svg">
<rect width="30" height="30" rx="5" fill="#FFA542"/>
<path d="M15.44 22.2C15.0773 22.648 14.6347 22.9893 14.112 23.224C13.6 23.4587 13.0347 23.576 12.416 23.576C11.584 23.576 10.832 23.3947 10.16 23.032C9.488 22.68 8.72 22.0507 7.856 21.144C6.84267 21.016 5.936 20.6907 5.136 20.168C4.34667 19.6453 3.728 18.9733 3.28 18.152C2.84267 17.32 2.624 16.4027 2.624 15.4C2.624 14.3013 2.88533 13.3147 3.408 12.44C3.94133 11.5547 4.672 10.8613 5.6 10.36C6.53867 9.85867 7.58933 9.608 8.752 9.608C9.91467 9.608 10.96 9.85867 11.888 10.36C12.816 10.8613 13.5467 11.5547 14.08 12.44C14.6133 13.3147 14.88 14.3013 14.88 15.4C14.88 16.7013 14.512 17.8427 13.776 18.824C13.0507 19.8053 12.0853 20.488 10.88 20.872C11.1467 21.1493 11.4027 21.3467 11.648 21.464C11.904 21.592 12.176 21.656 12.464 21.656C13.1573 21.656 13.7653 21.3787 14.288 20.824L15.44 22.2ZM5.248 15.4C5.248 16.0933 5.39733 16.712 5.696 17.256C6.00533 17.8 6.42667 18.2267 6.96 18.536C7.49333 18.8347 8.09067 18.984 8.752 18.984C9.41333 18.984 10.0107 18.8347 10.544 18.536C11.0773 18.2267 11.4933 17.8 11.792 17.256C12.1013 16.712 12.256 16.0933 12.256 15.4C12.256 14.7067 12.1013 14.088 11.792 13.544C11.4933 13 11.0773 12.5787 10.544 12.28C10.0107 11.9707 9.41333 11.816 8.752 11.816C8.09067 11.816 7.49333 11.9707 6.96 12.28C6.42667 12.5787 6.00533 13 5.696 13.544C5.39733 14.088 5.248 14.7067 5.248 15.4ZM21.676 9.8C22.668 9.8 23.5267 9.96533 24.252 10.296C24.988 10.6267 25.5533 11.096 25.948 11.704C26.3427 12.312 26.54 13.032 26.54 13.864C26.54 14.6853 26.3427 15.4053 25.948 16.024C25.5533 16.632 24.988 17.1013 24.252 17.432C23.5267 17.752 22.668 17.912 21.676 17.912H19.42V21H16.828V9.8H21.676ZM21.532 15.8C22.3107 15.8 22.9027 15.6347 23.308 15.304C23.7133 14.9627 23.916 14.4827 23.916 13.864C23.916 13.2347 23.7133 12.7547 23.308 12.424C22.9027 12.0827 22.3107 11.912 21.532 11.912H19.42V15.8H21.532Z" fill="white"/>
</svg>
